# xmcd
#
# Track frame offsets: 
#        150
#        11804
#        24135
#        34298
#        47375
#        58705
#        70257
#        80550
#        91819
#        104852
#        117413
#        129531
#        139333
#        151729
#        163328
#        176147
#        192602
#        204793
#        218753
#
# Disc length: 3139 seconds
#
# Revision: 0
# Processed by: cddbd v1.5.2PL0 Copyright (c) Steve Scherf et al.
# Submitted via: ExactAudioCopy v1.0b3
#
DISCID=100c4113
DTITLE=Patsy Cline and Merle Haggard - Country Royalty
DYEAR=2004
DGENRE=Country
TTITLE0=Patsy Cline - Walkin' After Midnight
TTITLE1=Patsy Cline - A Poor Man's Roses (Or A Rich Man's Gold)
TTITLE2=Patsy Cline - Three Cigarettes In The Ashtray
TTITLE3=Patsy Cline - If I Could See The World (Through The Eyes Of A 
TTITLE3=Child)
TTITLE4=Patsy Cline - In Care Of The Blues
TTITLE5=Patsy Cline - Lonely Street
TTITLE6=Patsy Cline - Pick Me Up On Your Way Down
TTITLE7=Patsy Cline - Just Out Of Reach
TTITLE8=Patsy Cline - Life's Railway To Heaven
TTITLE9=Patsy Cline - Just A Closer Walk With Thee
TTITLE10=Merle Haggard - Okie From Muskogee
TTITLE11=Merle Haggard - Mama Tried
TTITLE12=Merle Haggard - If We Make It Through December
TTITLE13=Merle Haggard - Carolyn
TTITLE14=Merle Haggard - The Fightin' Side Of Me
TTITLE15=Merle Haggard - Daddy Frank (The Guitar Man)
TTITLE16=Merle Haggard - Everybody's Had The Blues
TTITLE17=Merle Haggard - Always Wanting You
TTITLE18=Merle Haggard - Today I Started Loving You Again
EXTD=
EXTT0=
EXTT1=
EXTT2=
EXTT3=
EXTT4=
EXTT5=
EXTT6=
EXTT7=
EXTT8=
EXTT9=
EXTT10=
EXTT11=
EXTT12=
EXTT13=
EXTT14=
EXTT15=
EXTT16=
EXTT17=
EXTT18=
PLAYORDER=
